<?xml version="1.0" encoding="UTF-8"?>
<!DOCTYPE svg PUBLIC "-//W3C//DTD SVG 1.1//EN" "http://www.w3.org/Graphics/SVG/1.1/DTD/svg11.dtd">
<svg xmlns="http://www.w3.org/2000/svg" version="1.1" width="1024px" height="1024px" style="shape-rendering:geometricPrecision; text-rendering:geometricPrecision; image-rendering:optimizeQuality; fill-rule:evenodd; clip-rule:evenodd" xmlns:xlink="http://www.w3.org/1999/xlink">
<g><path style="opacity:1" fill="#262624" d="M -0.5,-0.5 C 340.833,-0.5 682.167,-0.5 1023.5,-0.5C 1023.5,340.833 1023.5,682.167 1023.5,1023.5C 682.167,1023.5 340.833,1023.5 -0.5,1023.5C -0.5,682.167 -0.5,340.833 -0.5,-0.5 Z"/></g>
<g><path style="opacity:1" fill="#140b06" d="M 239.5,296.5 C 223.27,295.737 207.27,297.071 191.5,300.5C 191.62,299.414 192.287,298.747 193.5,298.5C 198.462,297.451 203.462,296.617 208.5,296C 222.868,295.168 233.201,295.335 239.5,296.5 Z"/></g>
<g><path style="opacity:1" fill="#85a9b8" d="M 239.5,296.5 C 313.799,304.392 364.633,343.058 392,412.5C 408.817,469.056 400.817,521.722 368,570.5C 357.625,585.042 345.125,597.376 330.5,607.5C 319.93,599.798 308.43,593.798 296,589.5C 295.235,589.57 294.735,589.903 294.5,590.5C 293.506,581.014 293.173,571.348 293.5,561.5C 298.027,552.253 301.36,542.587 303.5,532.5C 304.338,532.158 304.672,531.492 304.5,530.5C 305.686,525.196 306.686,519.862 307.5,514.5C 313.839,513.016 318.672,509.349 322,503.5C 326.133,493.768 329.466,483.768 332,473.5C 332.829,466.766 332.496,460.099 331,453.5C 329.642,449.402 326.808,447.735 322.5,448.5C 322.334,443.489 322.501,438.489 323,433.5C 325.839,424.644 328.172,415.644 330,406.5C 330.667,407.833 331.333,407.833 332,406.5C 332.333,404.833 332.667,403.167 333,401.5C 335.837,385.173 331.67,370.839 320.5,358.5C 322.848,357.14 323.015,355.473 321,353.5C 316.814,348.326 311.647,344.492 305.5,342C 306.5,341.667 307.5,341.333 308.5,341C 307.161,337.305 304.495,334.972 300.5,334C 292.322,331.933 283.989,330.933 275.5,331C 276.759,330.077 278.092,329.243 279.5,328.5C 276.348,327.191 273.348,327.524 270.5,329.5C 264.004,323.077 256.337,318.411 247.5,315.5C 247.167,316.167 246.833,316.833 246.5,317.5C 231.633,314.082 216.633,313.582 201.5,316C 201.002,317.158 200.169,317.991 199,318.5C 190.644,319.967 182.81,322.801 175.5,327C 177.301,327.317 177.634,327.984 176.5,329C 166.923,331.695 158.757,336.529 152,343.5C 151.667,345.5 151.333,347.5 151,349.5C 137.752,359.665 129.918,372.998 127.5,389.5C 127.667,390.5 127.833,391.5 128,392.5C 128.965,390.74 130.132,390.406 131.5,391.5C 130.262,394.166 130.262,396.832 131.5,399.5C 132.086,399.291 132.586,398.957 133,398.5C 135.403,402.876 136.903,407.543 137.5,412.5C 138.086,412.291 138.586,411.957 139,411.5C 140.299,423.828 141.466,436.161 142.5,448.5C 138.818,447.725 136.318,449.059 135,452.5C 132.314,471.08 135.314,488.746 144,505.5C 146.565,510.243 150.398,513.243 155.5,514.5C 158.689,532.395 164.689,549.395 173.5,565.5C 173.5,570.5 173.5,575.5 173.5,580.5C 173.815,584.371 173.482,588.038 172.5,591.5C 172.5,590.5 172.5,589.5 172.5,588.5C 170.801,588.34 169.134,588.506 167.5,589C 158.833,594.333 150.167,599.667 141.5,605C 138.712,606.719 136.379,608.885 134.5,611.5C 90.2229,581.663 64.7229,539.996 58,486.5C 52.91,414.515 80.41,359.015 140.5,320C 156.45,310.689 173.45,304.189 191.5,300.5C 207.27,297.071 223.27,295.737 239.5,296.5 Z"/></g>
<g><path style="opacity:1" fill="#26201a" d="M 322.5,448.5 C 316.987,452.488 313.154,457.821 311,464.5C 309.982,481.197 308.815,497.863 307.5,514.5C 306.686,519.862 305.686,525.196 304.5,530.5C 303.876,530.083 303.543,529.416 303.5,528.5C 305.813,519.308 306.813,509.974 306.5,500.5C 309.096,479.582 309.929,458.582 309,437.5C 308.271,432.794 307.438,428.127 306.5,423.5C 306.235,419.147 305.735,414.813 305,410.5C 304.667,413.833 304.333,417.167 304,420.5C 303.667,419.833 303.333,419.167 303,418.5C 302.781,419.938 302.281,421.271 301.5,422.5C 299.507,420.334 297.673,418.001 296,415.5C 296.986,420.188 296.152,420.522 293.5,416.5C 293.089,417.262 292.923,418.262 293,419.5C 288.467,415.482 283.301,412.982 277.5,412C 278.163,413.518 279.163,414.685 280.5,415.5C 281.701,417.909 283.367,419.909 285.5,421.5C 285.44,422.043 285.107,422.376 284.5,422.5C 282.556,421.811 280.556,421.311 278.5,421C 274.903,417.682 271.403,414.182 268,410.5C 267.874,413.063 267.707,415.396 267.5,417.5C 265.57,420.943 264.07,424.609 263,428.5C 261.811,426.767 260.644,425.1 259.5,423.5C 258.205,419.577 256.372,415.91 254,412.5C 253.579,416.58 254.413,420.413 256.5,424C 255.668,424.688 255.002,424.521 254.5,423.5C 252.368,418.604 250.535,413.604 249,408.5C 249.102,414.896 250.435,420.896 253,426.5C 250.957,424.792 249.29,422.792 248,420.5C 247.508,421.549 247.674,422.549 248.5,423.5C 248,423.833 247.5,424.167 247,424.5C 244.085,423.305 241.251,422.472 238.5,422C 240.007,422.837 240.507,424.004 240,425.5C 237.957,423.792 236.29,421.792 235,419.5C 234.79,422.269 235.623,424.769 237.5,427C 237.167,427.167 236.833,427.333 236.5,427.5C 233.588,424.682 231.421,421.348 230,417.5C 230.131,420.951 231.298,424.118 233.5,427C 233.167,427.167 232.833,427.333 232.5,427.5C 228.758,424.926 225.925,421.593 224,417.5C 223.757,421.033 224.257,424.367 225.5,427.5C 225.5,427.833 225.5,428.167 225.5,428.5C 224.624,428.631 223.957,428.298 223.5,427.5C 221.726,424.285 220.226,420.952 219,417.5C 218.152,419.874 216.819,421.874 215,423.5C 213.739,423.241 212.739,422.574 212,421.5C 210.796,417.284 210.13,412.951 210,408.5C 203.055,416.344 194.555,419.511 184.5,418C 185.579,417.044 186.745,416.211 188,415.5C 188.667,414.833 188.667,414.167 188,413.5C 186.165,415.326 184.331,416.326 182.5,416.5C 185.248,412.979 187.414,409.312 189,405.5C 184.669,408.013 180.836,411.013 177.5,414.5C 178.675,411.183 179.508,407.85 180,404.5C 175.833,409.333 171.667,414.167 167.5,419C 165.099,419.795 162.932,420.962 161,422.5C 160.667,421.833 160.333,421.167 160,420.5C 155.772,431.085 153.938,442.085 154.5,453.5C 154.817,466.527 155.484,479.527 156.5,492.5C 156.815,496.371 156.482,500.038 155.5,503.5C 154.303,489.862 153.47,476.195 153,462.5C 151.666,456.146 148.166,451.48 142.5,448.5C 141.466,436.161 140.299,423.828 139,411.5C 138.586,411.957 138.086,412.291 137.5,412.5C 136.903,407.543 135.403,402.876 133,398.5C 132.586,398.957 132.086,399.291 131.5,399.5C 130.262,396.832 130.262,394.166 131.5,391.5C 130.132,390.406 128.965,390.74 128,392.5C 127.833,391.5 127.667,390.5 127.5,389.5C 129.918,372.998 137.752,359.665 151,349.5C 151.333,347.5 151.667,345.5 152,343.5C 158.757,336.529 166.923,331.695 176.5,329C 177.634,327.984 177.301,327.317 175.5,327C 182.81,322.801 190.644,319.967 199,318.5C 200.169,317.991 201.002,317.158 201.5,316C 216.633,313.582 231.633,314.082 246.5,317.5C 246.833,316.833 247.167,316.167 247.5,315.5C 256.337,318.411 264.004,323.077 270.5,329.5C 273.348,327.524 276.348,327.191 279.5,328.5C 278.092,329.243 276.759,330.077 275.5,331C 283.989,330.933 292.322,331.933 300.5,334C 304.495,334.972 307.161,337.305 308.5,341C 307.5,341.333 306.5,341.667 305.5,342C 311.647,344.492 316.814,348.326 321,353.5C 323.015,355.473 322.848,357.14 320.5,358.5C 331.67,370.839 335.837,385.173 333,401.5C 332.667,403.167 332.333,404.833 332,406.5C 331.333,407.833 330.667,407.833 330,406.5C 328.172,415.644 325.839,424.644 323,433.5C 322.501,438.489 322.334,443.489 322.5,448.5 Z"/></g>
<g><path style="opacity:1" fill="#050404" d="M 508.5,450.5 C 508.753,457.337 511.419,463.004 516.5,467.5C 510.854,464.236 507.687,459.236 507,452.5C 506.333,437.833 506.333,423.167 507,408.5C 507.169,422.673 507.669,436.673 508.5,450.5 Z"/></g>
<g><path style="opacity:1" fill="#f1f0eb" d="M 740.5,408.5 C 743.401,409.536 745.901,411.203 748,413.5C 748.273,411.899 748.773,410.399 749.5,409C 753.821,408.501 758.154,408.334 762.5,408.5C 762.803,431.533 762.469,454.533 761.5,477.5C 759.58,481.66 756.913,485.327 753.5,488.5C 739.056,497.388 724.389,497.721 709.5,489.5C 708.524,488.185 707.524,486.852 706.5,485.5C 709.167,481.833 711.833,478.167 714.5,474.5C 722.126,481.849 730.792,483.349 740.5,479C 745.838,475.491 747.672,470.658 746,464.5C 738.872,469.174 731.039,470.674 722.5,469C 711.469,465.129 705.636,457.296 705,445.5C 702.897,432.481 706.397,421.314 715.5,412C 723.274,407.439 731.608,406.273 740.5,408.5 Z"/></g>
<g><path style="opacity:1" fill="#f3f2ed" d="M 483.5,408.5 C 490.275,411.682 494.442,417.016 496,424.5C 496.5,439.496 496.667,454.496 496.5,469.5C 491.167,469.5 485.833,469.5 480.5,469.5C 480.95,454.761 480.45,440.095 479,425.5C 474.485,421.204 469.319,420.37 463.5,423C 462.944,423.383 462.611,423.883 462.5,424.5C 461.508,424.328 460.842,424.662 460.5,425.5C 459.883,425.611 459.383,425.944 459,426.5C 458.5,440.829 458.333,455.163 458.5,469.5C 453.167,469.5 447.833,469.5 442.5,469.5C 442.5,439.5 442.5,409.5 442.5,379.5C 447.833,379.5 453.167,379.5 458.5,379.5C 458.333,391.171 458.5,402.838 459,414.5C 465.958,407.726 474.125,405.726 483.5,408.5 Z"/></g>
<g><path style="opacity:1" fill="#f1f0eb" d="M 663.5,406.5 C 689.389,407.232 700.889,420.565 698,446.5C 694.919,463.051 684.919,471.384 668,471.5C 648.182,469.335 638.682,458.169 639.5,438C 639.872,421.485 647.872,410.985 663.5,406.5 Z"/></g>
<g><path style="opacity:1" fill="#f3f1ec" d="M 545.5,451.5 C 545.5,437.167 545.5,422.833 545.5,408.5C 550.833,408.5 556.167,408.5 561.5,408.5C 561.5,428.833 561.5,449.167 561.5,469.5C 556.833,469.5 552.167,469.5 547.5,469.5C 547.313,467.436 546.813,465.436 546,463.5C 543.683,466.802 540.517,468.969 536.5,470C 529.478,471.194 522.811,470.361 516.5,467.5C 511.419,463.004 508.753,457.337 508.5,450.5C 508.5,436.5 508.5,422.5 508.5,408.5C 513.5,408.5 518.5,408.5 523.5,408.5C 523.333,422.171 523.5,435.837 524,449.5C 526.908,457.037 532.075,459.204 539.5,456C 541.747,454.723 543.747,453.223 545.5,451.5 Z"/></g>
<g><path style="opacity:1" fill="#efeee9" d="M 835.5,379.5 C 840.833,379.5 846.167,379.5 851.5,379.5C 851.5,409.5 851.5,439.5 851.5,469.5C 846.833,469.5 842.167,469.5 837.5,469.5C 837.301,463.559 835.634,463.059 832.5,468C 816.31,475.717 804.477,471.55 797,455.5C 792.819,442.048 793.819,429.048 800,416.5C 807.278,407.91 816.444,405.077 827.5,408C 830.196,408.765 832.696,409.932 835,411.5C 835.5,400.839 835.667,390.172 835.5,379.5 Z"/></g>
<g><path style="opacity:1" fill="#f1f0ec" d="M 883.5,406.5 C 900.946,404.795 911.446,412.462 915,429.5C 915.499,434.155 915.666,438.821 915.5,443.5C 902.5,443.5 889.5,443.5 876.5,443.5C 877.173,455.667 883.506,460.501 895.5,458C 898.962,456.435 902.295,454.602 905.5,452.5C 908.5,454.833 911.167,457.5 913.5,460.5C 906.893,468.321 898.393,471.988 888,471.5C 872.615,470.117 863.615,461.784 861,446.5C 857.938,426.936 865.438,413.603 883.5,406.5 Z"/></g>
<g><path style="opacity:1" fill="#f1f0eb" d="M 916.5,408.5 C 922.206,408.171 927.872,408.505 933.5,409.5C 938.477,424.419 942.977,439.419 947,454.5C 950.867,439.067 955.034,423.734 959.5,408.5C 965.206,408.171 970.872,408.505 976.5,409.5C 969.371,428.72 962.538,448.053 956,467.5C 953.276,468.776 950.276,469.442 947,469.5C 943.914,469.478 940.914,469.145 938,468.5C 930.531,448.591 923.364,428.591 916.5,408.5 Z"/></g>
<g><path style="opacity:1" fill="#da9357" d="M 306.5,423.5 C 305.778,423.082 305.278,422.416 305,421.5C 303.521,423.265 301.688,424.599 299.5,425.5C 296.054,424.611 293.054,422.944 290.5,420.5C 289.808,421.025 289.308,421.692 289,422.5C 286.564,419.553 283.731,417.22 280.5,415.5C 279.163,414.685 278.163,413.518 277.5,412C 283.301,412.982 288.467,415.482 293,419.5C 292.923,418.262 293.089,417.262 293.5,416.5C 296.152,420.522 296.986,420.188 296,415.5C 297.673,418.001 299.507,420.334 301.5,422.5C 302.281,421.271 302.781,419.938 303,418.5C 303.333,419.167 303.667,419.833 304,420.5C 304.333,417.167 304.667,413.833 305,410.5C 305.735,414.813 306.235,419.147 306.5,423.5 Z"/></g>
<g><path style="opacity:1" fill="#dd9356" d="M 225.5,428.5 C 225.082,429.222 224.416,429.722 223.5,430C 227.307,431.834 227.307,432.834 223.5,433C 221.519,432.395 221.185,431.395 222.5,430C 221.069,429.535 219.903,428.701 219,427.5C 216.293,429.886 213.46,430.052 210.5,428C 207.298,426.298 204.965,423.798 203.5,420.5C 198.295,423.541 192.629,425.207 186.5,425.5C 184.956,425.21 183.623,424.544 182.5,423.5C 179.711,425.298 176.711,425.798 173.5,425C 174.238,421.157 175.571,417.657 177.5,414.5C 180.836,411.013 184.669,408.013 189,405.5C 187.414,409.312 185.248,412.979 182.5,416.5C 184.331,416.326 186.165,415.326 188,413.5C 188.667,414.167 188.667,414.833 188,415.5C 186.745,416.211 185.579,417.044 184.5,418C 194.555,419.511 203.055,416.344 210,408.5C 210.13,412.951 210.796,417.284 212,421.5C 212.739,422.574 213.739,423.241 215,423.5C 216.819,421.874 218.152,419.874 219,417.5C 220.226,420.952 221.726,424.285 223.5,427.5C 223.957,428.298 224.624,428.631 225.5,428.5 Z"/></g>
<g><path style="opacity:1" fill="#262624" d="M 679.5,452.5 C 678.327,454.504 676.66,456.004 674.5,457C 670.642,457.81 666.976,457.643 663.5,456.5C 663.938,456.565 664.272,456.399 664.5,456C 658.94,452.213 656.273,446.88 656.5,440C 657.13,435.79 657.964,431.623 659,427.5C 662.821,421.607 667.988,420.107 674.5,423C 679.617,427.002 681.617,432.336 680.5,439C 680.67,443.325 680.003,447.492 678.5,451.5C 678.624,452.107 678.957,452.44 679.5,452.5 Z"/></g>
<g><path style="opacity:1" fill="#242422" d="M 731.5,420.5 C 736.695,419.944 741.528,420.944 746,423.5C 746.667,432.833 746.667,442.167 746,451.5C 740.091,456.846 733.591,457.679 726.5,454C 724.57,451.742 723.07,449.242 722,446.5C 721.333,441.167 721.333,435.833 722,430.5C 724.048,425.955 727.215,422.622 731.5,420.5 Z"/></g>
<g><path style="opacity:1" fill="#dd9356" d="M 285.5,421.5 C 286.833,422.933 288.333,424.267 290,425.5C 290.667,426.5 290.667,427.5 290,428.5C 286.927,429.617 283.76,429.784 280.5,429C 277.167,427.667 273.833,426.333 270.5,425C 268.253,423.005 267.253,420.505 267.5,417.5C 267.707,415.396 267.874,413.063 268,410.5C 271.403,414.182 274.903,417.682 278.5,421C 280.556,421.311 282.556,421.811 284.5,422.5C 285.107,422.376 285.44,422.043 285.5,421.5 Z"/></g>
<g><path style="opacity:1" fill="#21211f" d="M 885.5,418.5 C 895.629,417.628 900.629,422.295 900.5,432.5C 892.5,432.5 884.5,432.5 876.5,432.5C 877.018,426.106 880.018,421.44 885.5,418.5 Z"/></g>
<g><path style="opacity:1" fill="#d99256" d="M 259.5,423.5 C 256.976,433.675 251.976,435.008 244.5,427.5C 241.336,429.552 238.003,431.218 234.5,432.5C 230.225,431.392 227.392,428.726 226,424.5C 225.517,425.448 225.351,426.448 225.5,427.5C 224.257,424.367 223.757,421.033 224,417.5C 225.925,421.593 228.758,424.926 232.5,427.5C 232.833,427.333 233.167,427.167 233.5,427C 231.298,424.118 230.131,420.951 230,417.5C 231.421,421.348 233.588,424.682 236.5,427.5C 236.833,427.333 237.167,427.167 237.5,427C 235.623,424.769 234.79,422.269 235,419.5C 236.29,421.792 237.957,423.792 240,425.5C 240.507,424.004 240.007,422.837 238.5,422C 241.251,422.472 244.085,423.305 247,424.5C 247.5,424.167 248,423.833 248.5,423.5C 247.674,422.549 247.508,421.549 248,420.5C 249.29,422.792 250.957,424.792 253,426.5C 250.435,420.896 249.102,414.896 249,408.5C 250.535,413.604 252.368,418.604 254.5,423.5C 255.002,424.521 255.668,424.688 256.5,424C 254.413,420.413 253.579,416.58 254,412.5C 256.372,415.91 258.205,419.577 259.5,423.5 Z"/></g>
<g><path style="opacity:1" fill="#272724" d="M 829.5,456.5 C 829.158,457.338 828.492,457.672 827.5,457.5C 824.325,456.571 820.991,455.738 817.5,455C 815.106,453.048 813.606,450.548 813,447.5C 810.3,439.315 811.3,431.649 816,424.5C 821.298,420.967 826.798,420.634 832.5,423.5C 833.666,433.483 833.832,443.483 833,453.5C 831.581,454.46 830.081,455.293 828.5,456C 828.728,456.399 829.062,456.565 829.5,456.5 Z"/></g>
<g><path style="opacity:1" fill="#0a0a09" d="M 761.5,477.5 C 762.469,454.533 762.803,431.533 762.5,408.5C 758.154,408.334 753.821,408.501 749.5,409C 748.773,410.399 748.273,411.899 748,413.5C 745.901,411.203 743.401,409.536 740.5,408.5C 742.823,407.766 744.99,408.432 747,410.5C 747.465,409.069 748.299,407.903 749.5,407C 753.833,406.333 758.167,406.333 762.5,407C 763,407.5 763.5,408 764,408.5C 764.667,429.167 764.667,449.833 764,470.5C 763.759,473.289 763.092,475.956 762,478.5C 761.601,478.272 761.435,477.938 761.5,477.5 Z"/></g>
<g><path style="opacity:1" fill="#131311" d="M 679.5,452.5 C 678.957,452.44 678.624,452.107 678.5,451.5C 680.003,447.492 680.67,443.325 680.5,439C 681.617,432.336 679.617,427.002 674.5,423C 667.988,420.107 662.821,421.607 659,427.5C 657.964,431.623 657.13,435.79 656.5,440C 656.273,446.88 658.94,452.213 664.5,456C 664.272,456.399 663.938,456.565 663.5,456.5C 660.178,455.342 658.012,453.008 657,449.5C 654.497,440.871 655.164,432.538 659,424.5C 660.214,422.951 661.714,421.785 663.5,421C 677.128,418.955 683.461,424.955 682.5,439C 682.673,443.804 681.673,448.304 679.5,452.5 Z"/></g>
<g><path style="opacity:1" fill="#151413" d="M 829.5,456.5 C 829.062,456.565 828.728,456.399 828.5,456C 830.081,455.293 831.581,454.46 833,453.5C 833.832,443.483 833.666,433.483 832.5,423.5C 826.798,420.634 821.298,420.967 816,424.5C 811.3,431.649 810.3,439.315 813,447.5C 813.606,450.548 815.106,453.048 817.5,455C 820.991,455.738 824.325,456.571 827.5,457.5C 818.399,459.201 812.899,455.535 811,446.5C 809.603,438.769 810.603,431.436 814,424.5C 815.41,423.213 816.91,422.046 818.5,421C 822.833,420.333 827.167,420.333 831.5,421C 832.931,421.465 834.097,422.299 835,423.5C 835.667,433.5 835.667,443.5 835,453.5C 833.512,455.16 831.679,456.16 829.5,456.5 Z"/></g>
<g><path style="opacity:1" fill="#131311" d="M 483.5,408.5 C 486.74,408.192 489.574,409.525 492,412.5C 494.194,415.554 495.861,418.888 497,422.5C 497.824,438.741 497.658,454.907 496.5,471C 490.584,471.807 484.75,471.641 479,470.5C 478.667,456.167 478.333,441.833 478,427.5C 473.837,421.642 468.837,420.976 463,425.5C 462.601,425.272 462.435,424.938 462.5,424.5C 462.611,423.883 462.944,423.383 463.5,423C 469.319,420.37 474.485,421.204 479,425.5C 480.45,440.095 480.95,454.761 480.5,469.5C 485.833,469.5 491.167,469.5 496.5,469.5C 496.667,454.496 496.5,439.496 496,424.5C 494.442,417.016 490.275,411.682 483.5,408.5 Z"/></g>
<g><path style="opacity:1" fill="#efeee9" d="M 598.5,469.5 C 595.381,468.26 592.381,467.093 589.5,466C 590.485,475.417 590.818,484.917 590.5,494.5C 584.833,494.5 579.167,494.5 573.5,494.5C 573.5,465.833 573.5,437.167 573.5,408.5C 578.5,408.5 583.5,408.5 588.5,408.5C 588.5,409.5 588.5,410.5 588.5,411.5C 588.369,412.376 588.702,413.043 589.5,413.5C 592.166,411.165 595.166,409.331 598.5,408C 616.24,404.28 627.407,411.113 632,428.5C 633.972,440.301 631.972,451.301 626,461.5C 618.467,469.733 609.301,472.399 598.5,469.5 Z"/></g>
<g><path style="opacity:1" fill="#272725" d="M 598.5,420.5 C 607.878,419.433 613.712,423.433 616,432.5C 617.15,439.19 616.15,445.524 613,451.5C 608.509,456.259 603.009,457.759 596.5,456C 594.101,455.269 591.935,454.102 590,452.5C 589.168,443.482 589.335,434.482 590.5,425.5C 593.231,423.808 595.898,422.142 598.5,420.5 Z"/></g>
<g><path style="opacity:1" fill="#12110f" d="M 561.5,469.5 C 561.5,449.167 561.5,428.833 561.5,408.5C 556.167,408.5 550.833,408.5 545.5,408.5C 545.5,422.833 545.5,437.167 545.5,451.5C 544.339,437.006 544.172,422.339 545,407.5C 550.779,406.193 556.612,406.193 562.5,407.5C 563.655,428.457 563.822,449.457 563,470.5C 557.918,471.637 552.751,471.804 547.5,471C 552.351,470.826 557.018,470.326 561.5,469.5 Z"/></g>
<g><path style="opacity:1" fill="#f0efeb" d="M 777.5,452.5 C 786.495,451.663 790.661,455.663 790,464.5C 787.185,470.169 782.685,472.002 776.5,470C 769.62,463.772 769.954,457.939 777.5,452.5 Z"/></g>
<g><path style="opacity:1" fill="#0e0e0d" d="M 442.5,469.5 C 447.833,469.5 453.167,469.5 458.5,469.5C 458.333,455.163 458.5,440.829 459,426.5C 459.383,425.944 459.883,425.611 460.5,425.5C 461.547,426.078 461.38,426.744 460,427.5C 459.667,441.833 459.333,456.167 459,470.5C 453,471.833 447,471.833 441,470.5C 440.333,440.167 440.333,409.833 441,379.5C 441.168,409.669 441.668,439.669 442.5,469.5 Z"/></g>
<g><path style="opacity:1" fill="#ecb170" d="M 142.5,448.5 C 148.166,451.48 151.666,456.146 153,462.5C 153.47,476.195 154.303,489.862 155.5,503.5C 155.5,507.167 155.5,510.833 155.5,514.5C 150.398,513.243 146.565,510.243 144,505.5C 135.314,488.746 132.314,471.08 135,452.5C 136.318,449.059 138.818,447.725 142.5,448.5 Z"/></g>
<g><path style="opacity:1" fill="#d4874d" d="M 137.5,457.5 C 145.028,459.027 149.695,463.694 151.5,471.5C 151.167,471.833 150.833,472.167 150.5,472.5C 148.712,470.424 147.046,468.257 145.5,466C 142.692,465.08 140.525,465.913 139,468.5C 138.667,472.5 138.333,476.5 138,480.5C 136.223,472.964 136.056,465.297 137.5,457.5 Z"/></g>
<g><path style="opacity:1" fill="#edb270" d="M 322.5,448.5 C 326.808,447.735 329.642,449.402 331,453.5C 332.496,460.099 332.829,466.766 332,473.5C 329.466,483.768 326.133,493.768 322,503.5C 318.672,509.349 313.839,513.016 307.5,514.5C 308.815,497.863 309.982,481.197 311,464.5C 313.154,457.821 316.987,452.488 322.5,448.5 Z"/></g>
<g><path style="opacity:1" fill="#d38249" d="M 325.5,457.5 C 326.693,457.97 327.36,458.97 327.5,460.5C 328.844,467.861 328.678,475.195 327,482.5C 326.906,476.722 326.239,471.056 325,465.5C 320.647,464.675 317.314,466.342 315,470.5C 315.032,468.402 315.699,466.402 317,464.5C 319.628,461.79 322.461,459.456 325.5,457.5 Z"/></g>
<g><path style="opacity:1" fill="#d68a50" d="M 149.5,477.5 C 150.239,477.369 150.906,477.536 151.5,478C 149.949,482.369 148.782,486.869 148,491.5C 146.846,490.257 145.512,489.257 144,488.5C 143.833,489 143.667,489.5 143.5,490C 145.174,492.936 146.674,495.769 148,498.5C 137.824,490.352 138.324,483.352 149.5,477.5 Z"/></g>
<g><path style="opacity:1" fill="#0c0b0a" d="M 588.5,411.5 C 588.5,410.5 588.5,409.5 588.5,408.5C 583.5,408.5 578.5,408.5 573.5,408.5C 573.5,437.167 573.5,465.833 573.5,494.5C 579.167,494.5 584.833,494.5 590.5,494.5C 590.818,484.917 590.485,475.417 589.5,466C 592.381,467.093 595.381,468.26 598.5,469.5C 596.354,470.431 594.188,470.097 592,468.5C 591.667,477.5 591.333,486.5 591,495.5C 585,496.833 579,496.833 573,495.5C 572.333,466.167 572.333,436.833 573,407.5C 577.748,406.365 582.581,406.198 587.5,407C 589.578,408.27 589.912,409.77 588.5,411.5 Z"/></g>
<g><path style="opacity:1" fill="#0b0b0a" d="M 753.5,488.5 C 753.938,488.435 754.272,488.601 754.5,489C 747.546,494.576 739.546,497.076 730.5,496.5C 722.847,497.004 715.847,495.171 709.5,491C 708.262,490.31 708.262,489.81 709.5,489.5C 724.389,497.721 739.056,497.388 753.5,488.5 Z"/></g>
<g><path style="opacity:1" fill="#ecb271" d="M 177.5,414.5 C 175.571,417.657 174.238,421.157 173.5,425C 176.711,425.798 179.711,425.298 182.5,423.5C 183.623,424.544 184.956,425.21 186.5,425.5C 192.629,425.207 198.295,423.541 203.5,420.5C 204.965,423.798 207.298,426.298 210.5,428C 213.46,430.052 216.293,429.886 219,427.5C 219.903,428.701 221.069,429.535 222.5,430C 221.185,431.395 221.519,432.395 223.5,433C 227.307,432.834 227.307,431.834 223.5,430C 224.416,429.722 225.082,429.222 225.5,428.5C 225.5,428.167 225.5,427.833 225.5,427.5C 225.351,426.448 225.517,425.448 226,424.5C 227.392,428.726 230.225,431.392 234.5,432.5C 238.003,431.218 241.336,429.552 244.5,427.5C 251.976,435.008 256.976,433.675 259.5,423.5C 260.644,425.1 261.811,426.767 263,428.5C 264.07,424.609 265.57,420.943 267.5,417.5C 267.253,420.505 268.253,423.005 270.5,425C 273.833,426.333 277.167,427.667 280.5,429C 283.76,429.784 286.927,429.617 290,428.5C 290.667,427.5 290.667,426.5 290,425.5C 288.333,424.267 286.833,422.933 285.5,421.5C 283.367,419.909 281.701,417.909 280.5,415.5C 283.731,417.22 286.564,419.553 289,422.5C 289.308,421.692 289.808,421.025 290.5,420.5C 293.054,422.944 296.054,424.611 299.5,425.5C 301.688,424.599 303.521,423.265 305,421.5C 305.278,422.416 305.778,423.082 306.5,423.5C 307.438,428.127 308.271,432.794 309,437.5C 309.929,458.582 309.096,479.582 306.5,500.5C 304.203,504.763 303.036,509.429 303,514.5C 300.382,519.301 298.216,524.301 296.5,529.5C 295.844,532.318 294.011,533.985 291,534.5C 290.546,537.612 288.713,539.278 285.5,539.5C 284.451,542.08 283.784,544.746 283.5,547.5C 282.209,547.263 281.209,547.596 280.5,548.5C 279.85,548.804 279.183,549.137 278.5,549.5C 277.687,546.599 276.687,543.766 275.5,541C 276.932,538.489 276.598,536.323 274.5,534.5C 271.848,531.863 268.848,529.53 265.5,527.5C 262.021,527.422 258.521,527.755 255,528.5C 254.333,527.833 253.667,527.167 253,526.5C 252,527.833 251,527.833 250,526.5C 249.667,527.167 249.333,527.833 249,528.5C 247.624,527.295 246.458,525.962 245.5,524.5C 243.369,523.686 241.036,523.186 238.5,523C 243.955,521.631 248.789,519.131 253,515.5C 253.667,512.5 253.667,509.5 253,506.5C 252.346,505.304 251.846,505.304 251.5,506.5C 252.562,509.103 252.728,511.77 252,514.5C 250.701,514.966 249.201,514.966 247.5,514.5C 244.246,514.207 241.246,514.874 238.5,516.5C 232.132,520.929 226.466,520.096 221.5,514C 218.518,513.502 215.518,513.335 212.5,513.5C 212.5,511.167 212.5,508.833 212.5,506.5C 207.848,507.104 206.348,509.77 208,514.5C 208.465,515.931 209.299,517.097 210.5,518C 214.279,519.338 217.613,521.171 220.5,523.5C 217.895,523.621 215.895,524.621 214.5,526.5C 211.843,526.162 209.51,526.829 207.5,528.5C 207.511,527.559 207.011,526.892 206,526.5C 204.39,528.489 202.557,528.822 200.5,527.5C 199.186,528.313 198.019,529.313 197,530.5C 196.612,529.572 195.945,528.905 195,528.5C 192.473,529.904 190.64,531.904 189.5,534.5C 188.883,534.611 188.383,534.944 188,535.5C 187.997,539.436 187.164,543.103 185.5,546.5C 187.52,548.599 187.854,550.933 186.5,553.5C 185.833,551.833 185.167,550.167 184.5,548.5C 183.817,548.863 183.15,549.196 182.5,549.5C 180.035,546.625 178.369,543.292 177.5,539.5C 176.5,539.5 175.5,539.5 174.5,539.5C 174.736,536.774 173.903,534.441 172,532.5C 170.989,531.663 169.822,531.33 168.5,531.5C 167.491,528.951 166.658,526.285 166,523.5C 165.292,522.619 164.458,521.953 163.5,521.5C 160.671,511.852 158.337,502.186 156.5,492.5C 155.484,479.527 154.817,466.527 154.5,453.5C 153.938,442.085 155.772,431.085 160,420.5C 160.333,421.167 160.667,421.833 161,422.5C 162.932,420.962 165.099,419.795 167.5,419C 171.667,414.167 175.833,409.333 180,404.5C 179.508,407.85 178.675,411.183 177.5,414.5 Z"/></g>
<g><path style="opacity:1" fill="#ded4c6" d="M 284.5,465.5 C 280.967,467.963 277.301,468.963 273.5,468.5C 277.881,465.718 278.547,462.218 275.5,458C 280.501,458.172 283.501,460.672 284.5,465.5 Z"/></g>
<g><path style="opacity:1" fill="#e5e0d6" d="M 207.5,462.5 C 207.092,463.643 206.425,464.643 205.5,465.5C 202.55,466.705 199.55,467.705 196.5,468.5C 199.464,466.013 200.131,463.013 198.5,459.5C 198.56,458.957 198.893,458.624 199.5,458.5C 202.074,460.024 204.741,461.358 207.5,462.5 Z"/></g>
<g><path style="opacity:1" fill="#dfd4c5" d="M 187.5,457.5 C 184.556,461.783 185.223,465.45 189.5,468.5C 189.44,469.043 189.107,469.376 188.5,469.5C 186.556,468.811 184.556,468.311 182.5,468C 180.68,467.8 179.347,466.966 178.5,465.5C 180.233,461.435 183.233,458.768 187.5,457.5 Z"/></g>
<g><path style="opacity:1" fill="#1b1611" d="M 187.5,457.5 C 188.239,457.369 188.906,457.536 189.5,458C 185.5,465 187.5,468 195.5,467C 197.037,465.89 197.703,464.39 197.5,462.5C 194.859,463.263 192.192,463.43 189.5,463C 188.731,460.518 189.731,458.685 192.5,457.5C 193.107,457.624 193.44,457.957 193.5,458.5C 192.596,459.209 192.263,460.209 192.5,461.5C 193.833,461.5 195.167,461.5 196.5,461.5C 196.5,460.5 196.5,459.5 196.5,458.5C 197.167,458.833 197.833,459.167 198.5,459.5C 200.131,463.013 199.464,466.013 196.5,468.5C 194.167,468.5 191.833,468.5 189.5,468.5C 185.223,465.45 184.556,461.783 187.5,457.5 Z"/></g>
<g><path style="opacity:1" fill="#2f2118" d="M 284.5,465.5 C 283.501,460.672 280.501,458.172 275.5,458C 278.547,462.218 277.881,465.718 273.5,468.5C 271.05,468.702 268.717,468.369 266.5,467.5C 265.883,467.389 265.383,467.056 265,466.5C 264.544,463.428 264.544,460.428 265,457.5C 261.173,458.5 258.007,460.5 255.5,463.5C 254.761,463.631 254.094,463.464 253.5,463C 262.589,453.79 272.923,452.123 284.5,458C 286.543,459.708 288.21,461.708 289.5,464C 287.846,464.608 286.179,465.108 284.5,465.5 Z"/></g>
<g><path style="opacity:1" fill="#d4cbc0" d="M 266.5,467.5 C 266.44,468.043 266.107,468.376 265.5,468.5C 263.333,467.208 261,466.375 258.5,466C 257.309,465.302 256.309,464.469 255.5,463.5C 258.007,460.5 261.173,458.5 265,457.5C 264.544,460.428 264.544,463.428 265,466.5C 265.383,467.056 265.883,467.389 266.5,467.5 Z"/></g>
<g><path style="opacity:1" fill="#412a1d" d="M 207.5,462.5 C 204.741,461.358 202.074,460.024 199.5,458.5C 198.893,458.624 198.56,458.957 198.5,459.5C 197.833,459.167 197.167,458.833 196.5,458.5C 195.5,458.5 194.5,458.5 193.5,458.5C 193.44,457.957 193.107,457.624 192.5,457.5C 189.731,458.685 188.731,460.518 189.5,463C 192.192,463.43 194.859,463.263 197.5,462.5C 197.703,464.39 197.037,465.89 195.5,467C 187.5,468 185.5,465 189.5,458C 188.906,457.536 188.239,457.369 187.5,457.5C 183.233,458.768 180.233,461.435 178.5,465.5C 177.542,465.047 176.708,464.381 176,463.5C 175.667,463.833 175.333,464.167 175,464.5C 176.014,459.485 179.18,456.318 184.5,455C 193.891,452.702 201.891,455.035 208.5,462C 208.272,462.399 207.938,462.565 207.5,462.5 Z"/></g>
<g><path style="opacity:1" fill="#cac6bd" d="M 193.5,458.5 C 194.5,458.5 195.5,458.5 196.5,458.5C 196.5,459.5 196.5,460.5 196.5,461.5C 195.167,461.5 193.833,461.5 192.5,461.5C 192.263,460.209 192.596,459.209 193.5,458.5 Z"/></g>
<g><path style="opacity:1" fill="#d99155" d="M 245.5,445.5 C 245.369,446.239 245.536,446.906 246,447.5C 246.718,446.549 247.551,446.383 248.5,447C 247.549,447.718 247.383,448.551 248,449.5C 249.543,446.581 251.043,446.248 252.5,448.5C 267.154,444.924 281.821,444.59 296.5,447.5C 294.801,447.34 293.134,447.506 291.5,448C 293.923,450.749 295.923,453.749 297.5,457C 295.5,457.333 293.5,457.667 291.5,458C 292.772,459.246 293.105,460.413 292.5,461.5C 291.047,459.815 289.714,458.149 288.5,456.5C 287.657,454.827 286.324,453.66 284.5,453C 274.012,448.738 264.345,449.904 255.5,456.5C 254.121,459.073 252.121,460.573 249.5,461C 252.284,458.92 251.951,458.253 248.5,459C 245.238,461.592 242.738,464.759 241,468.5C 240.333,466.167 240.333,463.833 241,461.5C 242.918,457.996 245.084,454.663 247.5,451.5C 246.703,449.868 245.703,448.368 244.5,447C 244.57,446.235 244.903,445.735 245.5,445.5 Z"/></g>
<g><path style="opacity:1" fill="#d9d1c8" d="M 271.5,457.5 C 274.861,458.203 275.194,459.537 272.5,461.5C 270.358,460.563 270.024,459.23 271.5,457.5 Z"/></g>
<g><path style="opacity:1" fill="#7e5434" d="M 288.5,456.5 C 277.549,451.173 266.549,451.173 255.5,456.5C 264.345,449.904 274.012,448.738 284.5,453C 286.324,453.66 287.657,454.827 288.5,456.5 Z"/></g>
<g><path style="opacity:1" fill="#d99155" d="M 214.5,442.5 C 214.736,443.902 215.07,445.402 215.5,447C 215.056,448.762 214.556,448.595 214,446.5C 213.838,450.378 215.505,453.378 219,455.5C 224.561,465.95 224.895,476.616 220,487.5C 220.09,479.657 219.09,471.991 217,464.5C 216,463.5 215,462.5 214,461.5C 213.667,462.167 213.333,462.833 213,463.5C 211.668,461.34 210.168,459.34 208.5,457.5C 205.299,454.063 201.299,451.896 196.5,451C 192.5,450.333 188.5,450.333 184.5,451C 182.509,451.374 180.842,452.207 179.5,453.5C 177.571,455.148 175.571,456.815 173.5,458.5C 173.5,457.5 173.5,456.5 173.5,455.5C 163.749,460.199 162.916,458.865 171,451.5C 171.64,449.735 171.473,448.068 170.5,446.5C 180.089,445.361 189.756,445.194 199.5,446C 202.627,446.392 205.627,447.225 208.5,448.5C 209.428,446.665 210.594,446.332 212,447.5C 212.366,445.548 213.199,443.882 214.5,442.5 Z"/></g>
<g><path style="opacity:1" fill="#815838" d="M 208.5,457.5 C 199.456,452.467 189.79,451.134 179.5,453.5C 180.842,452.207 182.509,451.374 184.5,451C 188.5,450.333 192.5,450.333 196.5,451C 201.299,451.896 205.299,454.063 208.5,457.5 Z"/></g>
<g><path style="opacity:1" fill="#6d5035" d="M 250.5,440.5 C 250.461,441.583 250.127,442.583 249.5,443.5C 250.274,444.711 251.107,444.711 252,443.5C 252.494,445.134 252.66,446.801 252.5,448.5C 251.043,446.248 249.543,446.581 248,449.5C 247.383,448.551 247.549,447.718 248.5,447C 247.551,446.383 246.718,446.549 246,447.5C 245.536,446.906 245.369,446.239 245.5,445.5C 245.537,442.298 247.203,440.632 250.5,440.5 Z"/></g>
<g><path style="opacity:1" fill="#382b20" d="M 296.5,447.5 C 281.821,444.59 267.154,444.924 252.5,448.5C 252.66,446.801 252.494,445.134 252,443.5C 251.107,444.711 250.274,444.711 249.5,443.5C 250.127,442.583 250.461,441.583 250.5,440.5C 251.058,439.21 252.058,438.377 253.5,438C 264.797,433.911 276.463,432.578 288.5,434C 296.104,435.426 299.771,439.926 299.5,447.5C 298.5,447.5 297.5,447.5 296.5,447.5 Z"/></g>
<g><path style="opacity:1" fill="#382b20" d="M 214.5,442.5 C 213.199,443.882 212.366,445.548 212,447.5C 210.594,446.332 209.428,446.665 208.5,448.5C 205.627,447.225 202.627,446.392 199.5,446C 189.756,445.194 180.089,445.361 170.5,446.5C 166.67,447.485 163.837,449.819 162,453.5C 160.718,445.788 163.218,439.621 169.5,435C 182.194,432.368 194.528,433.368 206.5,438C 209.633,438.86 212.3,440.36 214.5,442.5 Z"/></g>
<g><path style="opacity:1" fill="#d68b51" d="M 245.5,524.5 C 243.002,525.082 240.669,525.082 238.5,524.5C 233.623,524.187 230.789,526.52 230,531.5C 228.787,526.45 225.62,523.783 220.5,523.5C 217.613,521.171 214.279,519.338 210.5,518C 209.299,517.097 208.465,515.931 208,514.5C 206.348,509.77 207.848,507.104 212.5,506.5C 212.5,508.833 212.5,511.167 212.5,513.5C 215.518,513.335 218.518,513.502 221.5,514C 226.466,520.096 232.132,520.929 238.5,516.5C 238.735,517.097 239.235,517.43 240,517.5C 242.584,516.411 245.084,515.411 247.5,514.5C 249.201,514.966 250.701,514.966 252,514.5C 252.728,511.77 252.562,509.103 251.5,506.5C 251.846,505.304 252.346,505.304 253,506.5C 253.667,509.5 253.667,512.5 253,515.5C 248.789,519.131 243.955,521.631 238.5,523C 241.036,523.186 243.369,523.686 245.5,524.5 Z"/></g>
<g><path style="opacity:1" fill="#6a3f28" d="M 212.5,515.5 C 216.752,513.83 220.418,514.83 223.5,518.5C 223.333,518.833 223.167,519.167 223,519.5C 220.087,516.627 216.587,515.294 212.5,515.5 Z"/></g>
<g><path style="opacity:1" fill="#6c4029" d="M 247.5,514.5 C 245.084,515.411 242.584,516.411 240,517.5C 239.235,517.43 238.735,517.097 238.5,516.5C 241.246,514.874 244.246,514.207 247.5,514.5 Z"/></g>
<g><path style="opacity:1" fill="#f8f8f5" d="M 727.5,525.5 C 729.167,525.5 730.833,525.5 732.5,525.5C 732.333,537.505 732.5,549.505 733,561.5C 734.356,562.38 735.856,562.714 737.5,562.5C 737.845,565.488 736.512,566.821 733.5,566.5C 730.699,566.536 728.865,565.203 728,562.5C 727.5,550.171 727.333,537.838 727.5,525.5 Z"/></g>
<g><path style="opacity:1" fill="#e9e8e4" d="M 907.5,524.5 C 911.976,524.8 913.31,526.967 911.5,531C 905.339,531.878 904.006,529.711 907.5,524.5 Z"/></g>
<g><path style="opacity:1" fill="#f7f6f3" d="M 936.5,560.5 C 937.568,561.434 938.901,561.768 940.5,561.5C 940.714,563.144 940.38,564.644 939.5,566C 937.527,566.495 935.527,566.662 933.5,566.5C 932.496,565.317 931.662,563.984 931,562.5C 930.5,550.171 930.333,537.838 930.5,525.5C 932.167,525.5 933.833,525.5 935.5,525.5C 935.172,537.345 935.505,549.012 936.5,560.5 Z"/></g>
<g><path style="opacity:1" fill="#efefec" d="M 711.5,525.5 C 713.527,525.338 715.527,525.505 717.5,526C 715.402,528.854 713.069,531.521 710.5,534C 708.833,534.667 707.167,534.667 705.5,534C 707.72,531.287 709.72,528.454 711.5,525.5 Z"/></g>
<g><path style="opacity:1" fill="#795637" d="M 220.5,523.5 C 225.62,523.783 228.787,526.45 230,531.5C 230.789,526.52 233.623,524.187 238.5,524.5C 238.66,526.199 238.494,527.866 238,529.5C 236.334,528.66 236.167,529.16 237.5,531C 235.887,531.089 234.72,530.255 234,528.5C 232.487,531.164 232.32,533.83 233.5,536.5C 221.422,536.574 209.422,537.241 197.5,538.5C 197.5,538.833 197.5,539.167 197.5,539.5C 196.391,539.443 195.391,539.11 194.5,538.5C 194.918,537.778 195.584,537.278 196.5,537C 200.167,536.667 203.833,536.333 207.5,536C 208.5,535.167 209.5,534.333 210.5,533.5C 209.975,532.808 209.308,532.308 208.5,532C 209.667,530.833 210.833,529.667 212,528.5C 213.625,529.412 214.459,528.745 214.5,526.5C 215.895,524.621 217.895,523.621 220.5,523.5 Z"/></g>
<g><path style="opacity:1" fill="#57402b" d="M 163.5,521.5 C 164.458,521.953 165.292,522.619 166,523.5C 166.658,526.285 167.491,528.951 168.5,531.5C 169.138,535.668 170.304,539.668 172,543.5C 172.122,541.563 172.955,540.23 174.5,539.5C 175.5,539.5 176.5,539.5 177.5,539.5C 178.369,543.292 180.035,546.625 182.5,549.5C 181.527,551.068 181.36,552.735 182,554.5C 182.308,553.692 182.808,553.025 183.5,552.5C 184.896,554.972 185.73,557.638 186,560.5C 186.333,559.833 186.667,559.167 187,558.5C 188.097,560.053 189.43,561.386 191,562.5C 191.057,560.09 192.224,558.756 194.5,558.5C 193.877,560.694 193.543,562.861 193.5,565C 195.5,564.333 197.5,563.667 199.5,563C 197.675,564.466 197.175,566.299 198,568.5C 199,566.833 200,565.167 201,563.5C 201.318,565.061 202.151,566.228 203.5,567C 201.689,568.041 201.355,569.207 202.5,570.5C 203.239,570.369 203.906,570.536 204.5,571C 205.088,573.195 204.421,575.195 202.5,577C 202.611,578.722 203.111,578.888 204,577.5C 204.333,578.833 204.667,580.167 205,581.5C 205.29,579.956 205.956,578.623 207,577.5C 205.93,584.925 206.93,585.258 210,578.5C 210.455,581.816 212.288,583.982 215.5,585C 214.209,586.292 214.209,587.458 215.5,588.5C 215.657,589.873 215.49,591.207 215,592.5C 212.186,590.529 210.352,587.862 209.5,584.5C 208.038,586.1 206.538,587.767 205,589.5C 204.781,588.062 204.281,586.729 203.5,585.5C 201.452,586.083 199.619,586.083 198,585.5C 197.618,582.114 196.618,579.448 195,577.5C 194.667,578.833 194.333,580.167 194,581.5C 193.667,579.5 193.333,577.5 193,575.5C 191.992,575.018 190.825,574.852 189.5,575C 188.789,573.745 187.956,572.579 187,571.5C 187.409,569.775 187.242,568.108 186.5,566.5C 185.158,565.098 184.324,565.431 184,567.5C 183.134,563.193 182.134,562.86 181,566.5C 180,563.5 179,560.5 178,557.5C 177.667,558.167 177.333,558.833 177,559.5C 177.823,556.596 178.323,552.263 178.5,546.5C 178.167,546.167 177.833,545.833 177.5,545.5C 176.534,547.396 176.201,549.396 176.5,551.5C 171.448,551.724 168.282,549.391 167,544.5C 165.513,540.884 164.18,537.217 163,533.5C 162.503,529.476 162.669,525.476 163.5,521.5 Z"/></g>
<g><path style="opacity:1" fill="#61452d" d="M 214.5,526.5 C 214.459,528.745 213.625,529.412 212,528.5C 210.833,529.667 209.667,530.833 208.5,532C 209.308,532.308 209.975,532.808 210.5,533.5C 209.5,534.333 208.5,535.167 207.5,536C 203.833,536.333 200.167,536.667 196.5,537C 195.584,537.278 194.918,537.778 194.5,538.5C 194.167,538.5 193.833,538.5 193.5,538.5C 192.957,538.44 192.624,538.107 192.5,537.5C 194.124,536.131 194.624,534.464 194,532.5C 193.363,534.303 192.197,535.636 190.5,536.5C 189.702,536.043 189.369,535.376 189.5,534.5C 190.64,531.904 192.473,529.904 195,528.5C 195.945,528.905 196.612,529.572 197,530.5C 198.019,529.313 199.186,528.313 200.5,527.5C 202.557,528.822 204.39,528.489 206,526.5C 207.011,526.892 207.511,527.559 207.5,528.5C 209.51,526.829 211.843,526.162 214.5,526.5 Z"/></g>
<g><path style="opacity:1" fill="#694a31" d="M 238.5,524.5 C 240.669,525.082 243.002,525.082 245.5,524.5C 246.458,525.962 247.624,527.295 249,528.5C 249.333,527.833 249.667,527.167 250,526.5C 251,527.833 252,527.833 253,526.5C 253.667,527.167 254.333,527.833 255,528.5C 258.521,527.755 262.021,527.422 265.5,527.5C 268.848,529.53 271.848,531.863 274.5,534.5C 274.631,535.239 274.464,535.906 274,536.5C 272.404,535.952 271.237,536.618 270.5,538.5C 268.735,537.539 266.735,537.205 264.5,537.5C 263.065,536.904 261.398,536.904 259.5,537.5C 258.105,533.909 257.105,533.575 256.5,536.5C 254.618,535.907 252.785,535.24 251,534.5C 250.583,535.756 249.75,536.423 248.5,536.5C 243.497,536.332 238.497,536.332 233.5,536.5C 232.32,533.83 232.487,531.164 234,528.5C 234.72,530.255 235.887,531.089 237.5,531C 236.167,529.16 236.334,528.66 238,529.5C 238.494,527.866 238.66,526.199 238.5,524.5 Z"/></g>
<g><path style="opacity:1" fill="#b07f51" d="M 259.5,537.5 C 255.629,537.815 251.962,537.482 248.5,536.5C 249.75,536.423 250.583,535.756 251,534.5C 252.785,535.24 254.618,535.907 256.5,536.5C 257.105,533.575 258.105,533.909 259.5,537.5 Z"/></g>
<g><path style="opacity:1" fill="#f3f2ee" d="M 821.5,526.5 C 831.018,528.172 834.518,533.839 832,543.5C 830.833,546 829,547.833 826.5,549C 821.599,550.325 816.599,550.825 811.5,550.5C 811.5,555.5 811.5,560.5 811.5,565.5C 809.833,565.5 808.167,565.5 806.5,565.5C 806.5,552.5 806.5,539.5 806.5,526.5C 811.5,526.5 816.5,526.5 821.5,526.5 Z"/></g>
<g><path style="opacity:1" fill="#222120" d="M 812.5,531.5 C 815.85,531.335 819.183,531.502 822.5,532C 828.746,535.822 829.079,540.155 823.5,545C 822.207,545.49 820.873,545.657 819.5,545.5C 817.167,545.5 814.833,545.5 812.5,545.5C 812.5,540.833 812.5,536.167 812.5,531.5 Z"/></g>
<g><path style="opacity:1" fill="#96948f" d="M 923.5,560.5 C 922.505,549.012 922.172,537.345 922.5,525.5C 921.167,525.5 919.833,525.5 918.5,525.5C 918.5,537.833 918.5,550.167 918.5,562.5C 917.505,550.011 917.171,537.344 917.5,524.5C 919.5,524.5 921.5,524.5 923.5,524.5C 923.5,536.5 923.5,548.5 923.5,560.5 Z"/></g>
<g><path style="opacity:1" fill="#8e6642" d="M 168.5,531.5 C 169.822,531.33 170.989,531.663 172,532.5C 173.903,534.441 174.736,536.774 174.5,539.5C 172.955,540.23 172.122,541.563 172,543.5C 170.304,539.668 169.138,535.668 168.5,531.5 Z"/></g>
<g><path style="opacity:1" fill="#eeb571" d="M 248.5,536.5 C 251.962,537.482 255.629,537.815 259.5,537.5C 261.398,536.904 263.065,536.904 264.5,537.5C 264.5,537.833 264.5,538.167 264.5,538.5C 263.833,538.5 263.167,538.5 262.5,538.5C 251.706,537.991 241.039,538.657 230.5,540.5C 221.857,539.622 213.19,539.289 204.5,539.5C 202.139,539.326 199.806,538.993 197.5,538.5C 209.422,537.241 221.422,536.574 233.5,536.5C 238.497,536.332 243.497,536.332 248.5,536.5 Z"/></g>
<g><path style="opacity:1" fill="#ecece8" d="M 540.5,537.5 C 555.857,536.029 561.857,542.862 558.5,558C 553.965,566.745 547.299,568.745 538.5,564C 533.911,559.034 532.411,553.2 534,546.5C 535.611,543.062 537.777,540.062 540.5,537.5 Z"/></g>
<g><path style="opacity:1" fill="#f1f0ed" d="M 767.5,537.5 C 774.532,537.17 781.532,537.503 788.5,538.5C 784.345,546.139 779.679,553.472 774.5,560.5C 779.456,561.494 784.456,561.827 789.5,561.5C 789.5,562.833 789.5,564.167 789.5,565.5C 781.833,565.5 774.167,565.5 766.5,565.5C 769.356,558.144 773.523,551.477 779,545.5C 780.298,544.054 780.465,542.721 779.5,541.5C 775.5,541.5 771.5,541.5 767.5,541.5C 767.5,540.167 767.5,538.833 767.5,537.5 Z"/></g>
<g><path style="opacity:1" fill="#f0efec" d="M 621.5,537.5 C 637.173,536.149 643.006,543.149 639,558.5C 635.56,565.214 630.06,567.714 622.5,566C 615.501,561.351 613.001,554.851 615,546.5C 616.581,543.084 618.748,540.084 621.5,537.5 Z"/></g>
<g><path style="opacity:1" fill="#f4f3f0" d="M 662.5,565.5 C 662.666,558.159 662.5,550.826 662,543.5C 658.136,540.75 654.469,541.084 651,544.5C 650.5,551.492 650.334,558.492 650.5,565.5C 648.833,565.5 647.167,565.5 645.5,565.5C 645.5,557.5 645.5,549.5 645.5,541.5C 645.5,540.167 645.5,538.833 645.5,537.5C 646.833,537.5 648.167,537.5 649.5,537.5C 649.281,538.675 649.614,539.675 650.5,540.5C 655.459,536.968 660.625,536.634 666,539.5C 667.441,548.058 667.941,556.724 667.5,565.5C 665.833,565.5 664.167,565.5 662.5,565.5 Z"/></g>
<g><path style="opacity:1" fill="#61615e" d="M 767.5,537.5 C 767.5,538.833 767.5,540.167 767.5,541.5C 771.5,541.5 775.5,541.5 779.5,541.5C 775.366,542.485 771.032,542.818 766.5,542.5C 766.216,540.585 766.549,538.919 767.5,537.5 Z"/></g>
<g><path style="opacity:1" fill="#0c0c0a" d="M 821.5,526.5 C 816.5,526.5 811.5,526.5 806.5,526.5C 806.5,539.5 806.5,552.5 806.5,565.5C 808.292,566.309 810.292,566.809 812.5,567C 809.901,567.769 807.401,567.602 805,566.5C 804.333,553.167 804.333,539.833 805,526.5C 811.822,525.201 817.322,525.201 821.5,526.5 Z"/></g>
<g><path style="opacity:1" fill="#f5f5f1" d="M 891.5,529.5 C 892.5,529.5 893.5,529.5 894.5,529.5C 894.5,532.167 894.5,534.833 894.5,537.5C 897.167,537.5 899.833,537.5 902.5,537.5C 902.5,538.833 902.5,540.167 902.5,541.5C 899.833,541.5 897.167,541.5 894.5,541.5C 894.334,547.842 894.5,554.175 895,560.5C 897.147,561.113 899.314,561.779 901.5,562.5C 901.833,563.167 902.167,563.833 902.5,564.5C 897.582,567.652 893.415,566.986 890,562.5C 889.5,555.508 889.334,548.508 889.5,541.5C 887.833,541.5 886.167,541.5 884.5,541.5C 884.5,540.167 884.5,538.833 884.5,537.5C 886.167,537.5 887.833,537.5 889.5,537.5C 889.132,534.467 889.798,531.8 891.5,529.5 Z"/></g>
<g><path style="opacity:1" fill="#e5e4e1" d="M 440.5,526.5 C 442.5,526.5 444.5,526.5 446.5,526.5C 446.5,532.167 446.5,537.833 446.5,543.5C 452.5,543.5 458.5,543.5 464.5,543.5C 464.5,537.833 464.5,532.167 464.5,526.5C 466.5,526.5 468.5,526.5 470.5,526.5C 470.5,539.5 470.5,552.5 470.5,565.5C 468.5,565.5 466.5,565.5 464.5,565.5C 464.5,559.833 464.5,554.167 464.5,548.5C 458.5,548.5 452.5,548.5 446.5,548.5C 446.5,554.167 446.5,559.833 446.5,565.5C 444.5,565.5 442.5,565.5 440.5,565.5C 440.5,552.5 440.5,539.5 440.5,526.5 Z"/></g>
<g><path style="opacity:1" fill="#131311" d="M 905.5,535.5 C 907.92,535.292 910.253,535.626 912.5,536.5C 913.665,546.149 913.832,555.816 913,565.5C 910.582,567.68 907.916,568.013 905,566.5C 904.215,556.12 904.381,545.787 905.5,535.5 Z"/></g>
<g><path style="opacity:1" fill="#222220" d="M 543.5,541.5 C 547.639,540.704 550.805,542.037 553,545.5C 553.667,549.5 553.667,553.5 553,557.5C 552.535,558.931 551.701,560.097 550.5,561C 547.833,561.667 545.167,561.667 542.5,561C 541.299,560.097 540.465,558.931 540,557.5C 538.432,551.375 539.599,546.042 543.5,541.5 Z"/></g>
<g><path style="opacity:1" fill="#151413" d="M 645.5,541.5 C 645.5,549.5 645.5,557.5 645.5,565.5C 647.167,565.5 648.833,565.5 650.5,565.5C 650.334,558.492 650.5,551.492 651,544.5C 654.469,541.084 658.136,540.75 662,543.5C 662.5,550.826 662.666,558.159 662.5,565.5C 662.19,566.738 661.69,566.738 661,565.5C 660.5,558.174 660.334,550.841 660.5,543.5C 658.08,543.292 655.747,543.626 653.5,544.5C 652.669,551.811 652.169,559.144 652,566.5C 649.084,568.013 646.418,567.68 644,565.5C 643.333,556.167 643.333,546.833 644,537.5C 644.21,539.058 644.71,540.391 645.5,541.5 Z"/></g>
<g><path style="opacity:1" fill="#eeeeea" d="M 866.5,537.5 C 868.167,537.5 869.833,537.5 871.5,537.5C 871.443,541.133 872.443,541.3 874.5,538C 876.81,537.503 879.143,537.337 881.5,537.5C 881.5,538.833 881.5,540.167 881.5,541.5C 878.028,541.126 875.028,542.126 872.5,544.5C 871.503,551.468 871.17,558.468 871.5,565.5C 869.833,565.5 868.167,565.5 866.5,565.5C 866.5,556.167 866.5,546.833 866.5,537.5 Z"/></g>
<g><path style="opacity:1" fill="#c96f44" d="M 264.5,538.5 C 264.5,538.167 264.5,537.833 264.5,537.5C 266.735,537.205 268.735,537.539 270.5,538.5C 269.448,538.351 268.448,538.517 267.5,539C 252.081,555.696 233.748,560.029 212.5,552C 207.353,548.68 202.686,544.847 198.5,540.5C 209.42,541.584 220.254,543.25 231,545.5C 239.968,543.027 249.135,541.861 258.5,542C 260.392,541.027 262.392,540.36 264.5,540C 265.738,539.31 265.738,538.81 264.5,538.5 Z"/></g>
<g><path style="opacity:1" fill="#f3f2ef" d="M 704.5,537.5 C 708.182,537.335 711.848,537.501 715.5,538C 716.667,539.167 717.833,540.333 719,541.5C 719.333,548.167 719.667,554.833 720,561.5C 721,562.833 722,562.833 723,561.5C 723.494,563.134 723.66,564.801 723.5,566.5C 720.03,567.125 717.196,566.125 715,563.5C 709.246,567.821 703.912,567.487 699,562.5C 698.21,559.366 698.543,556.366 700,553.5C 704.058,550.7 708.558,548.866 713.5,548C 714.799,542.311 712.466,540.311 706.5,542C 704.282,545.089 701.949,545.089 699.5,542C 701.24,540.483 702.906,538.983 704.5,537.5 Z"/></g>
<g><path style="opacity:1" fill="#74726d" d="M 812.5,531.5 C 812.5,536.167 812.5,540.833 812.5,545.5C 814.833,545.5 817.167,545.5 819.5,545.5C 817.052,546.473 814.385,546.806 811.5,546.5C 811.179,541.305 811.513,536.305 812.5,531.5 Z"/></g>
<g><path style="opacity:1" fill="#232321" d="M 624.5,541.5 C 629.133,540.458 632.299,542.125 634,546.5C 634.791,550.926 634.457,555.259 633,559.5C 622.788,563.307 618.455,559.64 620,548.5C 620.53,545.415 622.03,543.082 624.5,541.5 Z"/></g>
<g><path style="opacity:1" fill="#785638" d="M 296.5,529.5 C 296.207,533.437 296.54,537.27 297.5,541C 296.501,543.761 294.501,545.094 291.5,545C 292.308,545.308 292.975,545.808 293.5,546.5C 292.358,554.412 291.524,554.412 291,546.5C 290.667,547.167 290.333,547.833 290,548.5C 289.808,546.423 289.308,544.423 288.5,542.5C 287.682,545.107 287.182,547.774 287,550.5C 285.667,551.167 284.667,552.167 284,553.5C 283.667,552.5 283.333,551.5 283,550.5C 282.722,551.416 282.222,552.082 281.5,552.5C 281.567,551.041 281.234,549.708 280.5,548.5C 281.209,547.596 282.209,547.263 283.5,547.5C 283.784,544.746 284.451,542.08 285.5,539.5C 288.713,539.278 290.546,537.612 291,534.5C 294.011,533.985 295.844,532.318 296.5,529.5 Z"/></g>
<g><path style="opacity:1" fill="#f1f0ec" d="M 591.5,525.5 C 598.379,525.273 604.045,527.773 608.5,533C 607.315,534.353 605.981,535.52 604.5,536.5C 599.935,530.182 594.268,529.016 587.5,533C 581.427,540.774 580.927,548.941 586,557.5C 590.091,561.305 594.924,562.472 600.5,561C 601.416,560.626 602.25,560.126 603,559.5C 603.498,556.518 603.665,553.518 603.5,550.5C 600.5,550.5 597.5,550.5 594.5,550.5C 594.5,548.833 594.5,547.167 594.5,545.5C 599.167,545.5 603.833,545.5 608.5,545.5C 608.808,551.425 608.475,557.259 607.5,563C 584.886,570.739 575.053,562.573 578,538.5C 580.417,531.915 584.917,527.582 591.5,525.5 Z"/></g>
<g><path style="opacity:1" fill="#916843" d="M 193.5,538.5 C 190.435,540.423 188.435,543.256 187.5,547C 191.76,548.332 193.094,550.999 191.5,555C 192.5,555.333 193.5,555.667 194.5,556C 193.402,556.77 193.402,557.603 194.5,558.5C 192.224,558.756 191.057,560.09 191,562.5C 189.43,561.386 188.097,560.053 187,558.5C 186.667,559.167 186.333,559.833 186,560.5C 185.73,557.638 184.896,554.972 183.5,552.5C 182.808,553.025 182.308,553.692 182,554.5C 181.36,552.735 181.527,551.068 182.5,549.5C 183.15,549.196 183.817,548.863 184.5,548.5C 185.167,550.167 185.833,551.833 186.5,553.5C 187.854,550.933 187.52,548.599 185.5,546.5C 187.164,543.103 187.997,539.436 188,535.5C 188.383,534.944 188.883,534.611 189.5,534.5C 189.369,535.376 189.702,536.043 190.5,536.5C 192.197,535.636 193.363,534.303 194,532.5C 194.624,534.464 194.124,536.131 192.5,537.5C 192.624,538.107 192.957,538.44 193.5,538.5 Z"/></g>
<g><path style="opacity:1" fill="#f9f9f6" d="M 906.5,537.5 C 908.167,537.5 909.833,537.5 911.5,537.5C 911.5,546.833 911.5,556.167 911.5,565.5C 909.833,565.5 908.167,565.5 906.5,565.5C 906.5,556.167 906.5,546.833 906.5,537.5 Z"/></g>
<g><path style="opacity:1" fill="#21201f" d="M 712.5,551.5 C 716.623,558.914 714.29,562.414 705.5,562C 703.675,560.534 703.175,558.701 704,556.5C 706.682,554.415 709.516,552.748 712.5,551.5 Z"/></g>
<g><path style="opacity:1" fill="#090908" d="M 942.5,554.5 C 940.639,564.137 944.639,567.97 954.5,566C 955.966,565.365 957.3,564.531 958.5,563.5C 960.441,566.334 963.107,567.168 966.5,566C 967.747,564.506 967.747,563.006 966.5,561.5C 965.833,561.833 965.167,562.167 964.5,562.5C 963.669,555.858 963.169,549.191 963,542.5C 962.338,541.016 961.504,539.683 960.5,538.5C 960.435,538.062 960.601,537.728 961,537.5C 962.385,538.551 963.385,539.884 964,541.5C 964.5,547.825 964.666,554.158 964.5,560.5C 965.833,560.5 967.167,560.5 968.5,560.5C 968.273,568.696 964.773,570.363 958,565.5C 954.067,567.478 949.9,567.978 945.5,567C 944.069,566.535 942.903,565.701 942,564.5C 940.948,566.811 939.115,568.144 936.5,568.5C 934.513,568.132 933.513,567.466 933.5,566.5C 935.527,566.662 937.527,566.495 939.5,566C 940.38,564.644 940.714,563.144 940.5,561.5C 938.901,561.768 937.568,561.434 936.5,560.5C 936.833,512.5 937.167,512.5 937.5,560.5C 938.5,560.5 939.5,560.5 940.5,560.5C 940.298,558.011 940.798,555.677 942,553.5C 942.399,553.728 942.565,554.062 942.5,554.5 Z"/></g>
<g><path style="opacity:1" fill="#f2f1ee" d="M 673.5,537.5 C 680.5,537.5 687.5,537.5 694.5,537.5C 694.628,539.655 694.128,541.655 693,543.5C 688.833,549.167 684.667,554.833 680.5,560.5C 685.456,561.494 690.456,561.827 695.5,561.5C 695.5,562.833 695.5,564.167 695.5,565.5C 688.167,565.5 680.833,565.5 673.5,565.5C 673.372,563.345 673.872,561.345 675,559.5C 679.167,553.833 683.333,548.167 687.5,542.5C 682.88,541.507 678.214,541.173 673.5,541.5C 673.5,540.167 673.5,538.833 673.5,537.5 Z"/></g>
<g><path style="opacity:1" fill="#946a44" d="M 274.5,534.5 C 276.598,536.323 276.932,538.489 275.5,541C 276.687,543.766 277.687,546.599 278.5,549.5C 279.183,549.137 279.85,548.804 280.5,548.5C 281.234,549.708 281.567,551.041 281.5,552.5C 281.349,555.718 280.516,556.051 279,553.5C 278.667,555.167 278.333,556.833 278,558.5C 275.965,556.088 274.965,556.755 275,560.5C 273.108,561.13 271.441,562.13 270,563.5C 269.508,564.549 269.674,565.549 270.5,566.5C 269.762,569.306 268.595,571.306 267,572.5C 266.218,569.812 264.718,568.812 262.5,569.5C 264.461,570.848 264.628,572.181 263,573.5C 260.876,568.604 259.543,568.604 259,573.5C 258.346,572.304 257.846,572.304 257.5,573.5C 259.746,574.983 260.579,576.983 260,579.5C 257.734,575.666 257.067,575.999 258,580.5C 256.473,578.779 255.473,576.779 255,574.5C 254.667,575.833 254.333,577.167 254,578.5C 253.667,578.167 253.333,577.833 253,577.5C 250.887,579.993 250.387,582.659 251.5,585.5C 251.167,585.5 250.833,585.5 250.5,585.5C 249.224,583.438 248.39,581.104 248,578.5C 247.506,580.134 247.34,581.801 247.5,583.5C 246.5,583.5 245.5,583.5 244.5,583.5C 243.982,586.887 243.149,590.221 242,593.5C 241.439,590.721 240.606,588.054 239.5,585.5C 239.5,582.833 239.5,580.167 239.5,577.5C 242.244,575.942 244.41,576.609 246,579.5C 246.273,577.899 246.773,576.399 247.5,575C 249.108,574.342 250.275,574.842 251,576.5C 251.11,573.354 252.443,572.354 255,573.5C 255.333,572.5 255.667,571.5 256,570.5C 256.333,570.833 256.667,571.167 257,571.5C 258.406,568.213 260.906,565.879 264.5,564.5C 265.086,564.709 265.586,565.043 266,565.5C 266.452,562.123 267.118,558.789 268,555.5C 269.533,555.056 271.033,554.723 272.5,554.5C 271.975,553.808 271.308,553.308 270.5,553C 272.341,551.134 274.008,549.134 275.5,547C 275.118,543.774 273.451,540.941 270.5,538.5C 271.237,536.618 272.404,535.952 274,536.5C 274.464,535.906 274.631,535.239 274.5,534.5 Z"/></g>
<g><path style="opacity:1" fill="#f0efeb" d="M 510.5,537.5 C 514.911,537.021 519.078,537.688 523,539.5C 524.401,537.808 526.234,537.141 528.5,537.5C 528.666,547.839 528.5,558.172 528,568.5C 524.422,575.816 518.589,578.316 510.5,576C 508.208,574.71 506.208,573.043 504.5,571C 506.833,567.667 509.167,567.667 511.5,571C 519.711,573.771 523.545,570.937 523,562.5C 516.737,566.986 511.071,566.32 506,560.5C 502.772,551.712 504.272,544.045 510.5,537.5 Z"/></g>
<g><path style="opacity:1" fill="#272725" d="M 513.5,541.5 C 516.807,541.063 519.807,541.73 522.5,543.5C 523.662,548.467 523.829,553.467 523,558.5C 517.49,561.913 513.156,560.913 510,555.5C 508.608,550.093 509.774,545.426 513.5,541.5 Z"/></g>
<g><path style="opacity:1" fill="#efeeea" d="M 843.5,537.5 C 857.766,535.935 863.599,542.269 861,556.5C 857.043,566.488 850.209,568.988 840.5,564C 833.097,554.066 834.097,545.233 843.5,537.5 Z"/></g>
<g><path style="opacity:1" fill="#222220" d="M 845.5,541.5 C 849.684,540.704 852.85,542.037 855,545.5C 855.667,549.5 855.667,553.5 855,557.5C 854.535,558.931 853.701,560.097 852.5,561C 849.833,561.667 847.167,561.667 844.5,561C 843.299,560.097 842.465,558.931 842,557.5C 840.52,551.451 841.686,546.118 845.5,541.5 Z"/></g>
<g><path style="opacity:1" fill="#eeeeea" d="M 960.5,538.5 C 961.504,539.683 962.338,541.016 963,542.5C 963.169,549.191 963.669,555.858 964.5,562.5C 965.167,562.167 965.833,561.833 966.5,561.5C 967.747,563.006 967.747,564.506 966.5,566C 963.107,567.168 960.441,566.334 958.5,563.5C 957.3,564.531 955.966,565.365 954.5,566C 944.639,567.97 940.639,564.137 942.5,554.5C 947.109,550.626 952.442,548.293 958.5,547.5C 958.496,542.011 955.829,540.178 950.5,542C 948.282,545.089 945.949,545.089 943.5,542C 948.361,537.438 954.027,536.271 960.5,538.5 Z"/></g>
<g><path style="opacity:1" fill="#1f1e1d" d="M 956.5,551.5 C 957.748,552.334 958.415,553.667 958.5,555.5C 959.016,558.815 957.683,560.982 954.5,562C 949.502,563.33 947.336,561.496 948,556.5C 950.523,554.173 953.357,552.507 956.5,551.5 Z"/></g>
<g><path style="opacity:1" fill="#efefec" d="M 477.5,537.5 C 479.167,537.5 480.833,537.5 482.5,537.5C 482.334,545.174 482.5,552.841 483,560.5C 486.844,562.238 490.177,561.571 493,558.5C 493.5,551.508 493.666,544.508 493.5,537.5C 495.167,537.5 496.833,537.5 498.5,537.5C 498.5,546.833 498.5,556.167 498.5,565.5C 497.167,565.5 495.833,565.5 494.5,565.5C 494.649,564.448 494.483,563.448 494,562.5C 489,567.245 483.833,567.579 478.5,563.5C 477.529,554.888 477.196,546.221 477.5,537.5 Z"/></g>
<g><path style="opacity:1" fill="#edece9" d="M 745.5,537.5 C 757.108,535.775 762.775,540.775 762.5,552.5C 756.5,552.5 750.5,552.5 744.5,552.5C 744.216,560.379 747.883,563.212 755.5,561C 757.949,557.911 760.282,557.911 762.5,561C 755.373,567.962 748.206,568.129 741,561.5C 736.519,552.278 738.019,544.278 745.5,537.5 Z"/></g>
<g><path style="opacity:1" fill="#181817" d="M 747.5,541.5 C 753.406,540.435 756.739,542.769 757.5,548.5C 753.167,548.5 748.833,548.5 744.5,548.5C 744.688,545.794 745.688,543.461 747.5,541.5 Z"/></g>
<g><path style="opacity:1" fill="#f0f0ec" d="M 923.5,560.5 C 924.078,562.443 925.078,562.777 926.5,561.5C 927.452,563.045 927.785,564.712 927.5,566.5C 925.143,566.663 922.81,566.497 920.5,566C 919.177,565.184 918.511,564.017 918.5,562.5C 918.5,550.167 918.5,537.833 918.5,525.5C 919.833,525.5 921.167,525.5 922.5,525.5C 922.172,537.345 922.505,549.012 923.5,560.5 Z"/></g>
<g><path style="opacity:1" fill="#e9ae6e" d="M 193.5,538.5 C 193.833,538.5 194.167,538.5 194.5,538.5C 195.391,539.11 196.391,539.443 197.5,539.5C 197.5,540.167 197.833,540.5 198.5,540.5C 202.686,544.847 207.353,548.68 212.5,552C 233.748,560.029 252.081,555.696 267.5,539C 268.448,538.517 269.448,538.351 270.5,538.5C 273.451,540.941 275.118,543.774 275.5,547C 274.008,549.134 272.341,551.134 270.5,553C 271.308,553.308 271.975,553.808 272.5,554.5C 271.033,554.723 269.533,555.056 268,555.5C 267.118,558.789 266.452,562.123 266,565.5C 265.586,565.043 265.086,564.709 264.5,564.5C 260.906,565.879 258.406,568.213 257,571.5C 256.667,571.167 256.333,570.833 256,570.5C 255.667,571.5 255.333,572.5 255,573.5C 252.443,572.354 251.11,573.354 251,576.5C 250.275,574.842 249.108,574.342 247.5,575C 246.773,576.399 246.273,577.899 246,579.5C 244.41,576.609 242.244,575.942 239.5,577.5C 236.815,579.499 234.315,579.499 232,577.5C 231.667,579.167 231.333,580.833 231,582.5C 230.389,580.25 229.056,578.583 227,577.5C 226.802,579.382 226.302,581.048 225.5,582.5C 225.754,580.599 225.42,579.933 224.5,580.5C 223.73,578.701 222.397,577.368 220.5,576.5C 219.808,577.025 219.308,577.692 219,578.5C 217.397,576.344 215.23,575.01 212.5,574.5C 211.459,576.991 210.626,576.991 210,574.5C 207.871,575.863 207.371,575.529 208.5,573.5C 207.263,572.719 206.263,571.719 205.5,570.5C 204.386,569.224 203.386,569.224 202.5,570.5C 201.355,569.207 201.689,568.041 203.5,567C 202.151,566.228 201.318,565.061 201,563.5C 200,565.167 199,566.833 198,568.5C 197.175,566.299 197.675,564.466 199.5,563C 197.5,563.667 195.5,564.333 193.5,565C 193.543,562.861 193.877,560.694 194.5,558.5C 193.402,557.603 193.402,556.77 194.5,556C 193.5,555.667 192.5,555.333 191.5,555C 193.094,550.999 191.76,548.332 187.5,547C 188.435,543.256 190.435,540.423 193.5,538.5 Z"/></g>
<g><path style="opacity:1" fill="#6b4c31" d="M 239.5,559.5 C 242.604,558.971 244.937,559.971 246.5,562.5C 245.18,564.27 243.68,564.603 242,563.5C 240.6,566.346 239.1,566.679 237.5,564.5C 235.971,565.763 234.305,566.763 232.5,567.5C 232.108,565.821 231.608,564.154 231,562.5C 230.692,563.308 230.192,563.975 229.5,564.5C 228.667,563.5 227.833,562.5 227,561.5C 224.586,566.712 224.086,566.378 225.5,560.5C 230.363,560.819 235.03,560.486 239.5,559.5 Z"/></g>
<g><path style="opacity:1" fill="#8d6440" d="M 223.5,559.5 C 228.833,559.5 234.167,559.5 239.5,559.5C 235.03,560.486 230.363,560.819 225.5,560.5C 224.086,566.378 224.586,566.712 227,561.5C 227.833,562.5 228.667,563.5 229.5,564.5C 230.192,563.975 230.692,563.308 231,562.5C 231.608,564.154 232.108,565.821 232.5,567.5C 230.549,567.773 229.049,567.107 228,565.5C 224.285,567.133 221.118,566.466 218.5,563.5C 218.67,562.178 218.337,561.011 217.5,560C 219.473,559.505 221.473,559.338 223.5,559.5 Z"/></g>
<g><path style="opacity:1" fill="#da9054" d="M 223.5,559.5 C 221.473,559.338 219.473,559.505 217.5,560C 218.337,561.011 218.67,562.178 218.5,563.5C 211.055,561.061 205.389,556.394 201.5,549.5C 201.833,549.167 202.167,548.833 202.5,548.5C 208.42,554.464 215.42,558.131 223.5,559.5 Z"/></g>
<g><path style="opacity:1" fill="#77361f" d="M 197.5,538.5 C 199.806,538.993 202.139,539.326 204.5,539.5C 213.155,540 221.822,541.333 230.5,543.5C 238.424,542.004 246.424,541.171 254.5,541C 257.379,540.454 260.046,539.621 262.5,538.5C 263.167,538.5 263.833,538.5 264.5,538.5C 265.738,538.81 265.738,539.31 264.5,540C 262.392,540.36 260.392,541.027 258.5,542C 249.135,541.861 239.968,543.027 231,545.5C 220.254,543.25 209.42,541.584 198.5,540.5C 197.833,540.5 197.5,540.167 197.5,539.5C 197.5,539.167 197.5,538.833 197.5,538.5 Z"/></g>
<g><path style="opacity:1" fill="#cd7144" d="M 262.5,538.5 C 260.046,539.621 257.379,540.454 254.5,541C 246.424,541.171 238.424,542.004 230.5,543.5C 221.822,541.333 213.155,540 204.5,539.5C 213.19,539.289 221.857,539.622 230.5,540.5C 241.039,538.657 251.706,537.991 262.5,538.5 Z"/></g>
<g><path style="opacity:1" fill="#31261d" d="M 303.5,532.5 C 301.36,542.587 298.027,552.253 293.5,561.5C 289.197,566.809 284.863,572.142 280.5,577.5C 277.436,580.57 274.103,583.237 270.5,585.5C 269.11,583 269.277,580.667 271,578.5C 271.333,579.5 271.667,580.5 272,581.5C 272.233,579.22 273.066,577.22 274.5,575.5C 275.769,573.305 275.769,571.139 274.5,569C 275.667,568.5 276.5,567.667 277,566.5C 277.333,567.833 277.667,569.167 278,570.5C 278.333,568.5 278.667,566.5 279,564.5C 279.249,565.624 279.749,566.624 280.5,567.5C 280.833,567.167 281.167,566.833 281.5,566.5C 280.907,564.618 280.24,562.785 279.5,561C 280,560.5 280.5,560 281,559.5C 282,564.833 283,564.833 284,559.5C 284.333,560.833 284.667,562.167 285,563.5C 285.988,560.696 287.488,559.029 289.5,558.5C 288.177,553.912 288.677,553.578 291,557.5C 291.667,554.833 292.333,554.833 293,557.5C 293.333,557.167 293.667,556.833 294,556.5C 297.635,547.981 300.802,539.981 303.5,532.5 Z"/></g>
<g><path style="opacity:1" fill="#4e3a28" d="M 306.5,500.5 C 306.813,509.974 305.813,519.308 303.5,528.5C 303.543,529.416 303.876,530.083 304.5,530.5C 304.672,531.492 304.338,532.158 303.5,532.5C 300.802,539.981 297.635,547.981 294,556.5C 293.667,556.833 293.333,557.167 293,557.5C 292.333,554.833 291.667,554.833 291,557.5C 288.677,553.578 288.177,553.912 289.5,558.5C 287.488,559.029 285.988,560.696 285,563.5C 284.667,562.167 284.333,560.833 284,559.5C 283,564.833 282,564.833 281,559.5C 280.5,560 280,560.5 279.5,561C 280.24,562.785 280.907,564.618 281.5,566.5C 281.167,566.833 280.833,567.167 280.5,567.5C 279.749,566.624 279.249,565.624 279,564.5C 278.667,566.5 278.333,568.5 278,570.5C 277.667,569.167 277.333,567.833 277,566.5C 276.5,567.667 275.667,568.5 274.5,569C 275.769,571.139 275.769,573.305 274.5,575.5C 273.066,577.22 272.233,579.22 272,581.5C 271.667,580.5 271.333,579.5 271,578.5C 269.277,580.667 269.11,583 270.5,585.5C 269.25,585.423 268.417,584.756 268,583.5C 266.221,586.276 265.221,585.943 265,582.5C 264.633,586.281 263.3,586.948 261,584.5C 260.667,585.5 260.333,586.5 260,587.5C 257.832,585.168 256.165,582.501 255,579.5C 255.482,582.76 255.482,586.093 255,589.5C 254.458,584.279 253.624,584.279 252.5,589.5C 251.571,588.311 251.238,586.978 251.5,585.5C 250.387,582.659 250.887,579.993 253,577.5C 253.333,577.833 253.667,578.167 254,578.5C 254.333,577.167 254.667,575.833 255,574.5C 255.473,576.779 256.473,578.779 258,580.5C 257.067,575.999 257.734,575.666 260,579.5C 260.579,576.983 259.746,574.983 257.5,573.5C 257.846,572.304 258.346,572.304 259,573.5C 259.543,568.604 260.876,568.604 263,573.5C 264.628,572.181 264.461,570.848 262.5,569.5C 264.718,568.812 266.218,569.812 267,572.5C 268.595,571.306 269.762,569.306 270.5,566.5C 269.674,565.549 269.508,564.549 270,563.5C 271.441,562.13 273.108,561.13 275,560.5C 274.965,556.755 275.965,556.088 278,558.5C 278.333,556.833 278.667,555.167 279,553.5C 280.516,556.051 281.349,555.718 281.5,552.5C 282.222,552.082 282.722,551.416 283,550.5C 283.333,551.5 283.667,552.5 284,553.5C 284.667,552.167 285.667,551.167 287,550.5C 287.182,547.774 287.682,545.107 288.5,542.5C 289.308,544.423 289.808,546.423 290,548.5C 290.333,547.833 290.667,547.167 291,546.5C 291.524,554.412 292.358,554.412 293.5,546.5C 292.975,545.808 292.308,545.308 291.5,545C 294.501,545.094 296.501,543.761 297.5,541C 296.54,537.27 296.207,533.437 296.5,529.5C 298.216,524.301 300.382,519.301 303,514.5C 303.036,509.429 304.203,504.763 306.5,500.5 Z"/></g>
<g><path style="opacity:1" fill="#825d3c" d="M 202.5,570.5 C 203.386,569.224 204.386,569.224 205.5,570.5C 206.263,571.719 207.263,572.719 208.5,573.5C 207.371,575.529 207.871,575.863 210,574.5C 210.626,576.991 211.459,576.991 212.5,574.5C 215.23,575.01 217.397,576.344 219,578.5C 219.308,577.692 219.808,577.025 220.5,576.5C 222.397,577.368 223.73,578.701 224.5,580.5C 223.657,587.426 222.823,587.759 222,581.5C 221.667,583.5 221.333,585.5 221,587.5C 220.529,585.754 219.862,584.087 219,582.5C 218.908,585.547 219.408,588.547 220.5,591.5C 220.03,592.463 219.363,592.463 218.5,591.5C 218.19,590.262 217.69,590.262 217,591.5C 216.768,590.263 216.268,589.263 215.5,588.5C 214.209,587.458 214.209,586.292 215.5,585C 212.288,583.982 210.455,581.816 210,578.5C 206.93,585.258 205.93,584.925 207,577.5C 205.956,578.623 205.29,579.956 205,581.5C 204.667,580.167 204.333,578.833 204,577.5C 203.111,578.888 202.611,578.722 202.5,577C 204.421,575.195 205.088,573.195 204.5,571C 203.906,570.536 203.239,570.369 202.5,570.5 Z"/></g>
<g><path style="opacity:1" fill="#33281e" d="M 156.5,492.5 C 158.337,502.186 160.671,511.852 163.5,521.5C 162.669,525.476 162.503,529.476 163,533.5C 164.18,537.217 165.513,540.884 167,544.5C 168.282,549.391 171.448,551.724 176.5,551.5C 176.201,549.396 176.534,547.396 177.5,545.5C 177.833,545.833 178.167,546.167 178.5,546.5C 178.323,552.263 177.823,556.596 177,559.5C 177.333,558.833 177.667,558.167 178,557.5C 179,560.5 180,563.5 181,566.5C 182.134,562.86 183.134,563.193 184,567.5C 184.324,565.431 185.158,565.098 186.5,566.5C 187.242,568.108 187.409,569.775 187,571.5C 187.956,572.579 188.789,573.745 189.5,575C 190.825,574.852 191.992,575.018 193,575.5C 193.333,577.5 193.667,579.5 194,581.5C 194.333,580.167 194.667,578.833 195,577.5C 196.618,579.448 197.618,582.114 198,585.5C 199.619,586.083 201.452,586.083 203.5,585.5C 204.281,586.729 204.781,588.062 205,589.5C 206.538,587.767 208.038,586.1 209.5,584.5C 210.352,587.862 212.186,590.529 215,592.5C 215.49,591.207 215.657,589.873 215.5,588.5C 216.268,589.263 216.768,590.263 217,591.5C 217.69,590.262 218.19,590.262 218.5,591.5C 218.343,592.873 218.51,594.207 219,595.5C 220.618,595.111 221.785,593.778 222.5,591.5C 223.281,592.729 223.781,594.062 224,595.5C 225.57,590.223 227.237,590.223 229,595.5C 229.57,592.156 230.736,591.823 232.5,594.5C 234.508,592.238 234.841,592.738 233.5,596C 234,596.5 234.5,597 235,597.5C 236.32,597.201 237.82,597.034 239.5,597C 238.304,596.346 238.304,595.846 239.5,595.5C 240.167,596.5 240.833,597.5 241.5,598.5C 242.641,595.938 243.474,593.272 244,590.5C 244.833,591.5 245.667,592.5 246.5,593.5C 247.308,591.577 247.808,589.577 248,587.5C 249.308,588.151 250.141,587.485 250.5,585.5C 250.833,585.5 251.167,585.5 251.5,585.5C 251.238,586.978 251.571,588.311 252.5,589.5C 253.624,584.279 254.458,584.279 255,589.5C 255.482,586.093 255.482,582.76 255,579.5C 256.165,582.501 257.832,585.168 260,587.5C 260.333,586.5 260.667,585.5 261,584.5C 263.3,586.948 264.633,586.281 265,582.5C 265.221,585.943 266.221,586.276 268,583.5C 268.417,584.756 269.25,585.423 270.5,585.5C 269.71,586.794 268.71,587.961 267.5,589C 244.273,604.553 220.94,604.886 197.5,590C 188.6,582.601 180.6,574.435 173.5,565.5C 164.689,549.395 158.689,532.395 155.5,514.5C 155.5,510.833 155.5,507.167 155.5,503.5C 156.482,500.038 156.815,496.371 156.5,492.5 Z"/></g>
<g><path style="opacity:1" fill="#db9155" d="M 173.5,565.5 C 180.6,574.435 188.6,582.601 197.5,590C 220.94,604.886 244.273,604.553 267.5,589C 268.71,587.961 269.71,586.794 270.5,585.5C 274.103,583.237 277.436,580.57 280.5,577.5C 269.86,595.63 254.86,609.13 235.5,618C 227.601,620.809 219.601,621.142 211.5,619C 199.652,614.487 190.152,606.987 183,596.5C 180.059,590.938 176.892,585.605 173.5,580.5C 173.5,575.5 173.5,570.5 173.5,565.5 Z"/></g>
<g><path style="opacity:1" fill="#473525" d="M 250.5,585.5 C 250.141,587.485 249.308,588.151 248,587.5C 247.808,589.577 247.308,591.577 246.5,593.5C 245.667,592.5 244.833,591.5 244,590.5C 243.474,593.272 242.641,595.938 241.5,598.5C 240.833,597.5 240.167,596.5 239.5,595.5C 238.304,595.846 238.304,596.346 239.5,597C 237.82,597.034 236.32,597.201 235,597.5C 234.5,597 234,596.5 233.5,596C 234.841,592.738 234.508,592.238 232.5,594.5C 230.736,591.823 229.57,592.156 229,595.5C 227.237,590.223 225.57,590.223 224,595.5C 223.781,594.062 223.281,592.729 222.5,591.5C 221.785,593.778 220.618,595.111 219,595.5C 218.51,594.207 218.343,592.873 218.5,591.5C 219.363,592.463 220.03,592.463 220.5,591.5C 219.408,588.547 218.908,585.547 219,582.5C 219.862,584.087 220.529,585.754 221,587.5C 221.333,585.5 221.667,583.5 222,581.5C 222.823,587.759 223.657,587.426 224.5,580.5C 225.42,579.933 225.754,580.599 225.5,582.5C 224.677,584.455 224.51,586.455 225,588.5C 225.333,587.833 225.667,587.167 226,586.5C 226.623,590.932 227.623,591.265 229,587.5C 230.526,592.627 231.526,592.627 232,587.5C 233.044,588.623 233.71,589.956 234,591.5C 234.219,590.062 234.719,588.729 235.5,587.5C 237.146,588.779 238.313,590.445 239,592.5C 238.588,590.005 238.755,587.671 239.5,585.5C 240.606,588.054 241.439,590.721 242,593.5C 243.149,590.221 243.982,586.887 244.5,583.5C 245.5,583.5 246.5,583.5 247.5,583.5C 247.34,581.801 247.506,580.134 248,578.5C 248.39,581.104 249.224,583.438 250.5,585.5 Z"/></g>
<g><path style="opacity:1" fill="#795739" d="M 239.5,577.5 C 239.5,580.167 239.5,582.833 239.5,585.5C 238.755,587.671 238.588,590.005 239,592.5C 238.313,590.445 237.146,588.779 235.5,587.5C 234.719,588.729 234.219,590.062 234,591.5C 233.71,589.956 233.044,588.623 232,587.5C 231.526,592.627 230.526,592.627 229,587.5C 227.623,591.265 226.623,590.932 226,586.5C 225.667,587.167 225.333,587.833 225,588.5C 224.51,586.455 224.677,584.455 225.5,582.5C 226.302,581.048 226.802,579.382 227,577.5C 229.056,578.583 230.389,580.25 231,582.5C 231.333,580.833 231.667,579.167 232,577.5C 234.315,579.499 236.815,579.499 239.5,577.5 Z"/></g>
<g><path style="opacity:1" fill="#686e97" d="M 330.5,607.5 C 326.053,611.564 321.053,614.898 315.5,617.5C 315.595,612.113 315.095,606.78 314,601.5C 313.49,607.567 312.657,613.567 311.5,619.5C 301.86,625.483 291.526,630.15 280.5,633.5C 285.022,629.972 289.522,626.305 294,622.5C 297.667,616.837 300.167,610.67 301.5,604C 297.964,600.095 295.631,595.595 294.5,590.5C 294.735,589.903 295.235,589.57 296,589.5C 308.43,593.798 319.93,599.798 330.5,607.5 Z"/></g>
<g><path style="opacity:1" fill="#686e97" d="M 172.5,591.5 C 171.773,596.954 169.44,601.62 165.5,605.5C 166.383,611.984 168.55,617.984 172,623.5C 176.694,627.365 181.194,631.365 185.5,635.5C 175.082,632.957 165.082,629.29 155.5,624.5C 154.134,617.246 153.3,609.912 153,602.5C 152.071,608.966 151.237,615.299 150.5,621.5C 144.794,618.653 139.461,615.32 134.5,611.5C 136.379,608.885 138.712,606.719 141.5,605C 150.167,599.667 158.833,594.333 167.5,589C 169.134,588.506 170.801,588.34 172.5,588.5C 172.5,589.5 172.5,590.5 172.5,591.5 Z"/></g>
<g><path style="opacity:1" fill="#262b50" d="M 155.5,624.5 C 153.632,623.737 151.965,622.737 150.5,621.5C 151.237,615.299 152.071,608.966 153,602.5C 153.3,609.912 154.134,617.246 155.5,624.5 Z"/></g>
<g><path style="opacity:1" fill="#1f244c" d="M 315.5,617.5 C 314.486,618.674 313.153,619.34 311.5,619.5C 312.657,613.567 313.49,607.567 314,601.5C 315.095,606.78 315.595,612.113 315.5,617.5 Z"/></g>
<g><path style="opacity:1" fill="#edb271" d="M 293.5,561.5 C 293.173,571.348 293.506,581.014 294.5,590.5C 295.631,595.595 297.964,600.095 301.5,604C 300.167,610.67 297.667,616.837 294,622.5C 289.522,626.305 285.022,629.972 280.5,633.5C 273.146,635.836 265.813,637.836 258.5,639.5C 240.875,641.703 223.208,642.036 205.5,640.5C 198.881,639.104 192.214,637.437 185.5,635.5C 181.194,631.365 176.694,627.365 172,623.5C 168.55,617.984 166.383,611.984 165.5,605.5C 169.44,601.62 171.773,596.954 172.5,591.5C 173.482,588.038 173.815,584.371 173.5,580.5C 176.892,585.605 180.059,590.938 183,596.5C 190.152,606.987 199.652,614.487 211.5,619C 219.601,621.142 227.601,620.809 235.5,618C 254.86,609.13 269.86,595.63 280.5,577.5C 284.863,572.142 289.197,566.809 293.5,561.5 Z"/></g>
<g><path style="opacity:1" fill="#0c0d12" d="M 258.5,639.5 C 259.239,639.369 259.906,639.536 260.5,640C 250.44,641.977 240.273,642.81 230,642.5C 223.5,642.333 217,642.167 210.5,642C 207.984,641.909 206.318,641.409 205.5,640.5C 223.208,642.036 240.875,641.703 258.5,639.5 Z"/></g>
</svg>
